# xmcd
#
# Track frame offsets:
# 150
# 15572
# 28167
# 43135
# 64635
#
# Disc length: 1086 seconds
#
# Revision: 0
# Processed by: cddbd v1.5.2PL0 Copyright (c) Steve Scherf et al.
# Submitted via: Audion 3.0.2 (http://www.panic.com/audion/)
#
DISCID=3a043c05
DTITLE=The Bushwackers - The Bushwackers
DYEAR=1900
DGENRE=
TTITLE0=Bushwacked
TTITLE1=Parchman Farm
TTITLE2=Prodigal Son
TTITLE3=Vigilante Man
TTITLE4=Bushwacked (Acoustic)
EXTD=
EXTT0=
EXTT1=
EXTT2=
EXTT3=
EXTT4=
PLAYORDER=
